MeshVersionFormatted 2

Dimension 2

Vertices
276
1 1 0 
58 1 0 
58 88 0 
1 88 0 
35 88 0 
6 87 0 
40 87 0 
50 87 0 
16 86 0 
41 86 0 
44 86 0 
10 85 0 
22 85 0 
48 85 0 
32 84 0 
8 83 0 
13 83 0 
55 83 0 
57 83 0 
12 82 0 
31 82 0 
55 82 0 
9 81 0 
10 81 0 
46 81 0 
57 81 0 
6 80 0 
37 80 0 
6 79 0 
9 79 0 
12 79 0 
35 79 0 
13 78 0 
19 78 0 
29 78 0 
39 78 0 
42 78 0 
1 77 0 
7 77 0 
11 77 0 
20 76 0 
36 76 0 
51 76 0 
24 75 0 
31 75 0 
36 75 0 
44 74 0 
46 74 0 
50 74 0 
54 74 0 
33 73 0 
36 73 0 
7 72 0 
24 72 0 
34 72 0 
47 72 0 
54 72 0 
56 72 0 
16 71 0 
29 71 0 
52 71 0 
5 70 0 
18 70 0 
33 70 0 
14 69 0 
35 69 0 
52 69 0 
25 68 0 
27 68 0 
35 68 0 
5 67 0 
6 67 0 
24 67 0 
33 67 0 
40 67 0 
56 67 0 
42 66 0 
46 66 0 
6 65 0 
9 65 0 
14 65 0 
21 65 0 
24 65 0 
40 65 0 
56 65 0 
8 64 0 
51 64 0 
1 63 0 
3 63 0 
19 63 0 
55 62 0 
35 61 0 
54 61 0 
12 60 0 
36 60 0 
43 60 0 
5 59 0 
7 59 0 
16 59 0 
34 59 0 
11 58 0 
26 57 0 
48 57 0 
18 56 0 
9 55 0 
34 55 0 
48 55 0 
29 54 0 
34 54 0 
45 54 0 
6 53 0 
43 53 0 
13 52 0 
30 52 0 
23 51 0 
47 51 0 
54 51 0 
56 51 0 
11 50 0 
32 50 0 
53 50 0 
17 49 0 
38 49 0 
50 49 0 
1 48 0 
52 48 0 
7 47 0 
42 47 0 
1 46 0 
14 46 0 
15 46 0 
39 46 0 
24 45 0 
52 45 0 
57 45 0 
7 44 0 
15 44 0 
36 44 0 
47 44 0 
7 43 0 
17 43 0 
21 43 0 
25 42 0 
29 42 0 
43 42 0 
9 41 0 
32 41 0 
54 41 0 
33 40 0 
15 39 0 
46 39 0 
52 39 0 
11 38 0 
13 38 0 
14 38 0 
25 38 0 
34 38 0 
42 38 0 
47 38 0 
40 37 0 
44 37 0 
50 37 0 
3 36 0 
57 36 0 
5 35 0 
8 35 0 
12 35 0 
51 35 0 
28 34 0 
31 34 0 
43 34 0 
14 33 0 
20 32 0 
35 32 0 
54 32 0 
48 31 0 
58 31 0 
2 30 0 
9 30 0 
15 30 0 
19 30 0 
39 30 0 
43 30 0 
54 30 0 
5 29 0 
7 29 0 
13 29 0 
16 29 0 
21 29 0 
50 29 0 
1 28 0 
51 28 0 
3 27 0 
9 27 0 
22 27 0 
9 26 0 
32 26 0 
51 26 0 
2 25 0 
34 25 0 
35 25 0 
37 25 0 
24 24 0 
29 24 0 
57 24 0 
26 23 0 
4 22 0 
23 22 0 
30 22 0 
37 22 0 
38 22 0 
9 21 0 
38 21 0 
49 21 0 
50 21 0 
1 20 0 
2 20 0 
6 20 0 
14 20 0 
25 20 0 
52 20 0 
36 19 0 
46 19 0 
15 18 0 
42 18 0 
44 18 0 
48 18 0 
23 17 0 
24 17 0 
28 17 0 
35 17 0 
36 17 0 
11 16 0 
20 16 0 
36 16 0 
29 15 0 
51 15 0 
54 15 0 
21 14 0 
22 14 0 
34 14 0 
55 14 0 
1 13 0 
19 13 0 
2 12 0 
11 12 0 
13 12 0 
50 12 0 
51 12 0 
14 11 0 
21 11 0 
44 10 0 
5 9 0 
16 9 0 
2 8 0 
29 8 0 
50 8 0 
18 6 0 
42 6 0 
14 5 0 
18 5 0 
19 5 0 
29 5 0 
45 5 0 
49 5 0 
57 5 0 
23 4 0 
51 4 0 
3 3 0 
13 3 0 
44 3 0 
5 2 0 
16 2 0 
36 2 0 
42 2 0 
45 1 0 

Triangles
537
5 6 9 0 
3 26 85 0 
3 18 19 0 
5 4 6 0 
9 6 12 0 
16 6 27 0 
5 9 13 0 
5 7 8 0 
3 5 8 0 
8 11 14 0 
34 33 41 0 
35 44 45 0 
5 13 15 0 
7 10 11 0 
8 7 11 0 
12 6 16 0 
23 16 27 0 
19 18 22 0 
16 23 24 0 
30 39 40 0 
36 28 42 0 
39 38 53 0 
10 7 28 0 
27 4 38 0 
17 33 34 0 
17 12 20 0 
9 12 17 0 
8 14 18 0 
3 8 18 0 
19 22 26 0 
3 19 26 0 
17 20 31 0 
22 14 25 0 
28 32 42 0 
15 13 21 0 
86 79 89 0 
18 14 22 0 
6 4 27 0 
40 39 53 0 
20 12 24 0 
12 16 24 0 
14 11 25 0 
11 10 25 0 
43 48 49 0 
49 48 56 0 
53 38 62 0 
29 27 38 0 
5 15 28 0 
7 5 28 0 
24 23 30 0 
34 41 44 0 
27 29 30 0 
23 27 30 0 
24 30 31 0 
20 24 31 0 
28 15 32 0 
15 21 32 0 
17 31 33 0 
32 21 35 0 
9 17 34 0 
13 9 34 0 
35 13 44 0 
21 13 35 0 
25 10 37 0 
46 45 51 0 
28 36 37 0 
10 28 37 0 
81 80 94 0 
29 38 39 0 
30 29 39 0 
33 31 40 0 
31 30 40 0 
70 64 74 0 
13 34 44 0 
44 54 60 0 
128 132 145 0 
26 22 43 0 
22 25 43 0 
42 45 46 0 
51 45 60 0 
42 32 45 0 
32 35 45 0 
36 42 46 0 
43 25 48 0 
36 46 47 0 
37 36 47 0 
37 47 48 0 
25 37 48 0 
26 58 76 0 
85 87 91 0 
43 49 50 0 
26 43 50 0 
52 51 55 0 
45 44 60 0 
46 51 52 0 
47 46 52 0 
83 82 90 0 
72 79 80 0 
71 62 88 0 
44 41 54 0 
66 70 75 0 
48 47 56 0 
65 80 81 0 
50 49 61 0 
49 56 61 0 
57 50 61 0 
50 57 58 0 
26 50 58 0 
41 33 59 0 
33 40 59 0 
3 135 177 0 
118 121 135 0 
26 76 85 0 
57 61 67 0 
62 38 88 0 
63 59 65 0 
41 59 63 0 
54 41 63 0 
51 60 64 0 
55 51 64 0 
59 40 65 0 
40 53 65 0 
55 64 66 0 
52 55 66 0 
77 75 84 0 
61 56 67 0 
84 95 96 0 
69 68 73 0 
54 68 69 0 
60 54 69 0 
73 82 83 0 
66 64 70 0 
72 71 79 0 
80 79 86 0 
62 71 72 0 
53 62 72 0 
68 54 73 0 
54 63 73 0 
60 69 74 0 
64 60 74 0 
52 66 75 0 
47 52 75 0 
57 67 76 0 
58 57 76 0 
47 75 77 0 
56 47 77 0 
56 77 78 0 
67 56 78 0 
101 98 105 0 
81 94 99 0 
53 72 80 0 
65 53 80 0 
63 81 90 0 
63 65 81 0 
82 63 90 0 
73 63 82 0 
74 69 83 0 
69 73 83 0 
75 70 84 0 
100 83 102 0 
93 103 107 0 
67 78 87 0 
89 88 97 0 
80 86 94 0 
85 76 87 0 
76 67 87 0 
111 97 125 0 
71 88 89 0 
79 71 89 0 
106 100 108 0 
83 90 102 0 
91 87 93 0 
135 148 164 0 
84 70 92 0 
70 74 92 0 
90 81 99 0 
84 92 95 0 
105 98 111 0 
108 102 115 0 
114 108 115 0 
87 78 96 0 
77 84 96 0 
78 77 96 0 
97 88 125 0 
86 89 97 0 
86 97 98 0 
94 86 98 0 
95 92 100 0 
101 105 113 0 
92 74 100 0 
74 83 100 0 
99 94 101 0 
94 98 101 0 
119 127 130 0 
100 102 108 0 
87 96 103 0 
93 87 103 0 
102 90 104 0 
90 99 104 0 
98 97 111 0 
113 105 119 0 
95 100 106 0 
95 106 112 0 
109 108 114 0 
107 103 110 0 
106 108 109 0 
102 104 115 0 
96 95 112 0 
103 96 110 0 
106 109 112 0 
110 96 112 0 
136 129 140 0 
105 111 119 0 
147 144 169 0 
85 91 118 0 
104 99 113 0 
99 101 113 0 
120 114 133 0 
121 124 126 0 
114 115 133 0 
165 163 178 0 
110 112 116 0 
107 110 116 0 
117 107 121 0 
93 107 117 0 
93 117 118 0 
91 93 118 0 
130 127 136 0 
115 122 133 0 
109 114 120 0 
116 128 139 0 
121 126 135 0 
118 117 121 0 
115 104 122 0 
104 113 122 0 
109 120 123 0 
112 109 123 0 
121 107 124 0 
107 116 124 0 
127 129 136 0 
124 116 139 0 
126 134 135 0 
111 125 127 0 
119 111 127 0 
112 123 128 0 
116 112 128 0 
127 125 129 0 
125 1 129 0 
122 113 130 0 
113 119 130 0 
122 130 131 0 
131 137 141 0 
128 123 132 0 
133 142 143 0 
172 167 179 0 
157 149 170 0 
134 124 139 0 
126 124 134 0 
85 118 135 0 
3 85 135 0 
142 141 150 0 
155 167 172 0 
193 191 199 0 
131 130 137 0 
132 123 138 0 
123 120 138 0 
132 138 145 0 
139 128 145 0 
137 130 146 0 
136 140 146 0 
130 136 146 0 
122 131 141 0 
122 141 142 0 
133 122 142 0 
214 223 227 0 
138 120 144 0 
133 143 144 0 
120 133 144 0 
152 159 162 0 
135 134 148 0 
197 204 209 0 
150 154 155 0 
144 143 156 0 
138 144 147 0 
199 191 216 0 
139 151 152 0 
138 147 149 0 
152 151 159 0 
146 153 154 0 
141 137 150 0 
135 164 177 0 
139 145 151 0 
148 134 152 0 
134 139 152 0 
163 129 191 0 
178 163 191 0 
150 137 154 0 
137 146 154 0 
144 156 169 0 
173 181 189 0 
142 150 156 0 
143 142 156 0 
138 149 157 0 
151 145 158 0 
138 157 160 0 
158 145 160 0 
161 158 171 0 
145 138 160 0 
169 173 189 0 
148 152 164 0 
159 151 161 0 
151 158 161 0 
159 171 176 0 
169 189 195 0 
146 140 163 0 
140 129 163 0 
158 160 171 0 
164 168 175 0 
146 163 165 0 
155 154 167 0 
146 165 166 0 
153 146 166 0 
153 166 167 0 
154 153 167 0 
164 152 168 0 
152 162 168 0 
173 180 181 0 
164 175 177 0 
147 169 170 0 
149 147 170 0 
184 175 190 0 
159 161 171 0 
169 156 173 0 
150 155 172 0 
150 172 173 0 
156 150 173 0 
157 170 174 0 
160 157 174 0 
202 201 210 0 
184 190 192 0 
168 162 176 0 
162 159 176 0 
184 192 198 0 
196 207 212 0 
167 166 179 0 
185 193 196 0 
165 185 186 0 
194 186 196 0 
173 172 180 0 
211 210 213 0 
189 181 195 0 
160 174 182 0 
171 160 182 0 
171 182 183 0 
176 171 183 0 
177 175 184 0 
176 183 190 0 
186 185 196 0 
165 178 185 0 
179 166 186 0 
166 165 186 0 
180 172 187 0 
172 179 187 0 
180 187 188 0 
181 180 188 0 
181 188 195 0 
206 203 208 0 
168 176 190 0 
175 168 190 0 
203 195 208 0 
219 212 233 0 
2 177 205 0 
178 191 193 0 
185 178 193 0 
187 179 194 0 
179 186 194 0 
246 245 253 0 
174 170 197 0 
187 194 196 0 
233 245 246 0 
195 203 204 0 
170 169 197 0 
192 190 198 0 
190 183 198 0 
207 199 216 0 
217 216 243 0 
182 174 201 0 
231 230 236 0 
197 200 201 0 
174 197 201 0 
182 201 202 0 
183 182 202 0 
220 228 229 0 
204 203 206 0 
197 169 204 0 
169 195 204 0 
184 198 205 0 
177 184 205 0 
204 206 209 0 
208 195 219 0 
193 199 207 0 
196 193 207 0 
200 197 209 0 
209 206 220 0 
212 218 233 0 
206 208 220 0 
200 209 210 0 
201 200 210 0 
202 210 211 0 
183 202 211 0 
188 187 219 0 
195 188 219 0 
205 238 242 0 
2 205 266 0 
213 222 225 0 
198 183 214 0 
198 214 215 0 
221 227 237 0 
253 245 255 0 
207 216 217 0 
224 219 233 0 
207 217 218 0 
212 207 218 0 
196 212 219 0 
187 196 219 0 
223 225 226 0 
220 208 228 0 
198 215 221 0 
205 198 221 0 
213 210 222 0 
210 209 222 0 
214 183 223 0 
183 211 223 0 
239 234 244 0 
208 219 224 0 
223 211 225 0 
211 213 225 0 
225 232 235 0 
223 226 227 0 
221 215 227 0 
215 214 227 0 
258 261 262 0 
241 236 256 0 
234 224 244 0 
232 231 235 0 
220 229 230 0 
209 220 230 0 
209 230 231 0 
222 209 231 0 
222 231 232 0 
225 222 232 0 
254 250 260 0 
230 229 236 0 
228 208 234 0 
208 224 234 0 
237 227 248 0 
242 238 249 0 
248 252 257 0 
260 270 273 0 
227 226 248 0 
225 235 252 0 
221 237 238 0 
205 221 238 0 
229 228 240 0 
236 229 240 0 
234 239 240 0 
228 234 240 0 
231 236 241 0 
235 231 241 0 
249 248 257 0 
257 264 265 0 
218 217 243 0 
244 250 254 0 
251 244 254 0 
218 243 245 0 
233 218 245 0 
244 247 250 0 
244 224 247 0 
233 246 247 0 
224 233 247 0 
258 254 260 0 
235 241 252 0 
237 248 249 0 
238 237 249 0 
247 246 250 0 
260 253 270 0 
239 244 251 0 
240 239 251 0 
248 226 252 0 
226 225 252 0 
269 1 272 0 
246 253 260 0 
267 273 274 0 
251 254 258 0 
245 243 255 0 
243 1 255 0 
240 251 256 0 
236 240 256 0 
263 267 274 0 
205 242 266 0 
258 260 261 0 
250 246 260 0 
256 263 274 0 
252 241 259 0 
264 259 271 0 
267 262 273 0 
262 261 273 0 
274 273 276 0 
251 258 262 0 
263 256 267 0 
272 1 273 0 
271 275 276 0 
252 259 264 0 
257 252 264 0 
2 268 276 0 
2 266 268 0 
249 257 266 0 
242 249 266 0 
251 262 267 0 
256 251 267 0 
266 257 268 0 
257 265 268 0 
253 255 269 0 
255 1 269 0 
270 272 273 0 
261 260 273 0 
268 265 276 0 
264 271 276 0 
270 253 272 0 
253 269 272 0 
275 274 276 0 
273 1 276 0 
259 241 274 0 
241 256 274 0 
259 274 275 0 
271 259 275 0 
265 264 276 0 

End
