MeshVersionFormatted 2

Dimension 2

Vertices
14
0 0 0 
1 0 0 
1 1 0 
0 1 0 
0.00534073915829951 0.0122074037903989 0 
0.545335245826594 0.917264320810572 0 
0.490829187902463 0.393047883541368 0 
0.244636371959594 0.233283486434523 0 
0.48246711630604 0.053987243263039 0 
0.989074373607593 0.914029358806116 0 
0.411114841151158 0.216650898770104 0 
0.0712912381359294 0.708792382580035 0 
0.646626178777429 0.418469801934873 0 
0.437971129490036 0.600482192449721 0 

Triangles
22
1 5 12 0 
5 1 9 0 
13 6 14 0 
3 4 6 0 
5 8 12 0 
4 1 12 0 
2 3 10 0 
2 10 13 0 
8 5 9 0 
1 2 9 0 
8 9 11 0 
9 2 13 0 
11 9 13 0 
3 6 10 0 
7 11 13 0 
7 8 11 0 
6 12 14 0 
6 4 12 0 
10 6 13 0 
7 13 14 0 
12 8 14 0 
8 7 14 0 

End
