MeshVersionFormatted 2

Dimension 2

Vertices
855
-10 -10 0 
-10 -8 0 
-8.64180199939633 -8.64662327244969 0 
-8 -10 0 
-7.02249844602902 -8.36978670707557 0 
-5.1422537191661 -8.24146239825202 0 
-6 -10 0 
-5.29322946267121 -5.31489999425624 0 
-5.46946313070435 -6.02254248595687 0 
-6.21873625241826 -6.20977330411232 0 
-6.02254248591937 -5.46946313075596 0 
-5.41500784737395 -6.82673598637033 0 
-6.45548029845674 -7.14877746073486 0 
-6.82757147023187 -5.40673596295231 0 
-7.17717026414686 -6.20975389661392 0 
-8.23882387068126 -5.13537664700524 0 
-8.24138869038327 -7.02495010631298 0 
-10 -6 0 
-10 -4 0 
-8.07010296563038 -4.0560178363864 0 
-8.24156666882952 -2.8745906457902 0 
-5.2439575773063 -3.73640243739347 0 
-5.58647530944124 -3.18662632450594 0 
-5.2942218711787 -2.70720418707765 0 
-6.02254248594937 -2.53053686928533 0 
-5.81990116854364 -3.69954479303912 0 
-5.0644726419702 -4.3685686680961 0 
-5.57892442217921 -4.83333844504304 0 
-5.76734739427204 -4.25740528927844 0 
-6.37764129072921 -4.77254248596406 0 
-6.5 -4.00000000002552 0 
-7.13986529385713 -4.48463005731465 0 
-7.13989406376051 -3.52708902690116 0 
-6.37764129074498 -3.22745751408447 0 
-6.82773037128695 -2.59063045512112 0 
-5.46946313074563 -1.97745751407313 0 
-6.21594708156807 -1.79402865599486 0 
-5.43962780101685 -1.18001498457843 0 
-5.119896726442 -0.395526987935179 0 
-5.84574844614449 -0.385477985882314 0 
-6.82778928118304 -0.0802696687485334 0 
-6.40034610190725 -0.970587779755395 0 
-7.31076150482823 -0.769922140881781 0 
-7.1887121347805 -1.68929692331349 0 
-10 -2 0 
-8.34069706650253 -1.09934955604552 0 
-0.0733644273841552 -0.158345221278901 0 
-0.606303085129329 -0.415570536509194 0 
-1.21306053009967 -0.608678567101959 0 
-0.722206432289177 -1.07601807246623 0 
-0.0688274176444302 -0.799035592623894 0 
-2.26933562089942 -0.515939280683247 0 
-1.75520234469667 -0.0859053294389002 0 
-1.80249702715837 -0.915167002346833 0 
-1.28128834381237 -1.24048760198621 0 
-1.76676429593808 -1.7629111622177 0 
-0.250989292318681 -1.47941405117511 0 
-0.955630903237665 -1.74163718324133 0 
-0.541197930970344 -2.16470096152849 0 
-4.77254248595193 -1.62235870926685 0 
-4.81636087882341 -2.42083615830964 0 
-4.26736428308548 -2.23913453244147 0 
-4.00000000001276 -1.5 0 
-4.49131851178666 -0.883375871562349 0 
-4.56558247793785 -0.184329604177697 0 
-3.99655447906695 -0.26578171390347 0 
-3.40560432694199 -0.210322830055394 0 
-3.50689012684087 -0.883968757930312 0 
-2.56751849183592 -1.18331626342758 0 
-2.85041838240539 -0.428116283204136 0 
-3.22745751407234 -1.62235870925896 0 
-3.71335701867633 -2.18952150943457 0 
-3.20083136381995 -2.41212111386947 0 
-2.53053686927501 -1.97745751405813 0 
-4.80601152451159 -3.22995364801113 0 
-4.35169506045268 -2.87556966013138 0 
-3.81811075936223 -2.81800815203785 0 
-4.04003511111806 -3.59309587178159 0 
-4.63275547526146 -3.90932091642566 0 
-4.79694623564381 -4.97987571015909 0 
-4.16830883293594 -4.45818444461658 0 
-3.2525288250388 -4.7964810853096 0 
-3.39924195803689 -4.01099654775789 0 
-2.75331254196674 -4.25644568444642 0 
-2.81052457157299 -3.54740250456851 0 
-3.31423616894429 -3.15936193167684 0 
-2.71869971490934 -2.7587701294428 0 
-0.435737039466418 -2.79048920627349 0 
-1.18522921040588 -2.56100197401225 0 
-0.878909509629561 -3.50160165729437 0 
-0.184524230621771 -3.3377103788995 0 
-2.34951899491438 -3.17661533048738 0 
-2.22636254849775 -3.74000200709454 0 
-1.97745751406563 -2.53053686926469 0 
-1.6223587092629 -3.2274575140602 0 
-2.17999831350407 -4.30034492481671 0 
-2.41534741617906 -4.81442570874349 0 
-1.62235870924713 -4.77254248589126 0 
-1.5 -3.99999999994896 0 
-0.172322202127465 -3.93906173163294 0 
-0.872571441106938 -4.49298382280321 0 
-0.0767319656040658 -4.55459043390377 0 
-0.330060361243994 -5.26630647181076 0 
-1.21880795594037 -5.41650969717164 0 
-0.849758505726647 -6.20583347038334 0 
-0.170698876758407 -7.06087267636615 0 
-1.58723525699937 -7.14545443164821 0 
-1.78565415879509 -6.20879757410479 0 
-1.97745751403563 -5.46946313069402 0 
-2.70894755029938 -5.29438384610027 0 
-2.53053686923372 -6.02254248591187 0 
-3.72908924266416 -5.82582627285816 0 
-3.21166653642398 -5.58984160947412 0 
-3.52696797155132 -7.13989168848643 0 
-2.58681008062049 -6.8266815463346 0 
-3.2274575140238 -6.37764129072527 0 
-4.48479533682396 -7.13988686071657 0 
-4.77254248590339 -6.37764129074892 0 
-3.99999999996172 -6.5 0 
-4.01982021773248 -5.27342884412147 0 
-4.27238747308784 -5.82645750026893 0 
-4.79139749916723 -5.60649962755025 0 
-4 -10 0 
-4.05602008827011 -8.0701356394239 0 
-2.86832743003594 -8.24070049290906 0 
-2 -10 0 
-0.977102319151445 -8.34127959496741 0 
0 -10 0 
0.995111987133427 -8.23136026114053 0 
2 -10 0 
1.8622040774796 -5.23048575330498 0 
1.96711797030044 -6.01345749126958 0 
1.16822923286172 -5.5172100900696 0 
0.445232979993923 -5.60018581093902 0 
0.0311143241202498 -6.10309567017843 0 
0.957928817328494 -6.60087569720464 0 
1.99811332220452 -7.04594636266969 0 
3.39275872070689 -5.47869560399579 0 
2.60635931927244 -5.48034296660533 0 
4.13669725253422 -5.22816730067516 0 
4.8302981076136 -5.50899910093091 0 
4.00798470968224 -5.9788026452141 0 
4.86136553740873 -6.54999278111054 0 
3.97129652428124 -7.00616736354636 0 
2.99715510603824 -6.34896452083436 0 
2.99850180978499 -8.19664899921215 0 
4.97600690515624 -8.22594345870967 0 
4 -10 0 
2.60658395009655 -0.500610017531491 0 
2.99999999998979 -1 0 
3.61803398874213 -1.09788696740717 0 
3.39928731254602 -0.503992420318042 0 
4.02538629622345 -0.17427508667838 0 
4.13341086524404 -0.783148721174845 0 
4.76606663356572 -1.23585828037145 0 
4.78763440395272 -0.55662498834018 0 
4.90211303258968 -2.38196601124816 0 
4.6180339887475 -1.82442949541175 0 
4.17557050457999 -1.38196601124651 0 
4.26929511202225 -2.33606712221602 0 
4.03653324779916 -1.95072871035223 0 
3.67933418266849 -2.27067414380674 0 
3.64111553088134 -1.72990449048303 0 
3.2259066677036 -1.55653704042482 0 
2.78161589786588 -1.59159819874451 0 
2.66627957628625 -1.99431738883779 0 
3.06442159665109 -2.17230458033062 0 
1.57510763389608 -0.225166248593634 0 
2.08521875766386 -0.100898143318243 0 
2.38196601123846 -1.09788696741348 0 
1.85050006887147 -0.747409845818865 0 
1.14810587488854 -0.614746747180033 0 
0.497051503935362 -0.442374879928682 0 
0.511922763626561 -1.20822875869982 0 
1.23550464622844 -1.2402692490373 0 
0.779220238873603 -1.87032351992634 0 
1.09788696740402 -2.38196601126758 0 
0.0984640176096833 -2.11737547351924 0 
1.73148253207692 -2.34736302001682 0 
1.38196601124051 -1.82442949542827 0 
1.82442949540349 -1.3819660112585 0 
2.34575040328851 -1.73085296004057 0 
1.96523461830899 -1.96326267457486 0 
2.37137127583062 -2.32299660446365 0 
0.545385359533309 -2.60421583362539 0 
0.0889685367743897 -2.86863885750975 0 
1 -3.00000000002041 0 
1.09788696741663 -3.61803398877125 0 
0.480233785675347 -3.38482200040659 0 
2.37721090463734 -3.62499063383703 0 
2.06500313255611 -3.25757763128025 0 
2.00974179180579 -2.78603313683374 0 
1.54421680554897 -2.75969134219657 0 
1.58335367012094 -3.20427251818243 0 
1.73435730913586 -3.6516280210433 0 
2.34782376217554 -4.26455435637833 0 
1.96514550232783 -4.03485561646046 0 
2.38196601127728 -4.90211303259914 0 
1.82442949543652 -4.61803398876549 0 
1.3819660112645 -4.17557050460476 0 
0.701606923426352 -4.16443704908934 0 
1.23103629094844 -4.77109570907771 0 
0.510044001003201 -4.91356005289512 0 
2.78704437487967 -4.41009965036566 0 
3.00000000003062 -5 0 
3.22982964339059 -4.44926330929917 0 
3.61803398878096 -4.90211303258021 0 
3.54686063634297 -3.78979408847671 0 
3.63922795383998 -4.2750701964778 0 
3.15913598176655 -3.96985191741773 0 
2.73602774225144 -3.9206807749395 0 
3.08615410507193 -3.43606713608063 0 
3.34898182720117 -2.83191563318873 0 
2.61233564024811 -2.9408873606056 0 
4.45403747766323 -2.7583064462039 0 
3.96448041930715 -2.76722270108887 0 
3.78590229589209 -3.3750862203271 0 
4.30367226299177 -3.66238419811572 0 
4.40408100767945 -3.2100454769783 0 
4.90211303260229 -3.61803398871301 0 
4.61803398877149 -4.17557050455522 0 
4.01134005410657 -3.99990245749788 0 
4.17557050461302 -4.6180339887295 0 
4.76750437787884 -4.76750437781622 0 
6.65784546694596 -1.05830355679718 0 
5.68371130997323 -0.240322001296595 0 
5.52843970365197 -1.16476955295343 0 
5.23102385107396 -1.8622985148592 0 
6.01825497840457 -1.97381963778441 0 
7.05031842687359 -2.00642547741539 0 
8.22611785493148 -0.999425310672691 0 
10 -2 0 
8.1966298035473 -2.99865416717763 0 
8.22594317757597 -4.97600728669763 0 
10 -4 0 
6.54999278112592 -4.86136553734407 0 
7.00616444231588 -3.97130047896023 0 
6.34911862227684 -2.99751730408333 0 
5.48039677419062 -2.60645727239068 0 
5 -2.99999999995917 0 
5.47869447904158 -3.39276024216758 0 
5.22816730071399 -4.13669725245507 0 
5.97880086685253 -4.00798711491422 0 
5.5089991009842 -4.83029810753323 0 
6 -10 0 
6.96494931893485 -8.26447225747305 0 
7.16049408217789 -5.83887460093024 0 
5.84227123997765 -5.84227123992338 0 
5.8388746009535 -7.16049408216601 0 
6.76553774170814 -6.76553774169494 0 
10 -6 0 
8.26447225747378 -6.96494931893357 0 
8 -10 0 
8.6408915821155 -8.64089158211547 0 
10 -8 0 
10 -10 0 
10 10 0 
10 8 0 
8.64107560037501 8.6411236345912 0 
8 10 0 
8.25174946420294 5.00833725062844 0 
10 6 0 
8.25712601065363 6.98037671832938 0 
6.93898528976756 5.09206749480488 0 
7.04290275902086 5.95771122899509 0 
6.04248102090212 5.43428249822768 0 
5.3322804517273 5.33120151039142 0 
5.37119957361048 5.9427949736326 0 
5.12835038613421 6.82494319728034 0 
6.07378315073918 6.3010360544546 0 
6.0112156678754 7.20983107303017 0 
6.83250069960507 6.86232977913045 0 
6.98160138715575 8.26242265018355 0 
5.01104148810197 8.25313304593491 0 
6 10 0 
6.94644572088369 0.0415920264977063 0 
6.85333716679532 1.00726566178445 0 
6.01639849098725 0.659443204980257 0 
5.32906281073497 0.557653038636905 0 
5.35378519877714 2.13915006081476 0 
5.32773449841558 1.39073808194904 0 
6.16527674029976 1.38466831727377 0 
6.0241761003305 2.01163774371142 0 
6.90008048449793 1.85487055747746 0 
8.19316782386484 1.08583533734467 0 
10 0 0 
10 2 0 
8.36338387303594 3.0439723636849 0 
10 4 0 
6.29339546117589 4.6353120460279 0 
6.31574017715895 3.93830948617804 0 
7.049918421973 3.86332639567553 0 
6.59048304035314 2.71851856905625 0 
7.42316336359965 2.57662415549444 0 
5.32590272210261 2.67471098199162 0 
5.21352549157862 3.11832212158359 0 
5.87956085839053 2.64443861006191 0 
6.24000565996882 3.31646405179729 0 
5.85847588298205 3.69950265945638 0 
5.67340902688904 3.14901028236702 0 
5.42658477445172 3.53647450846524 0 
5.04412245651055 3.833010103971 0 
5.04608482517171 4.18930905001444 0 
5.5 4.00000000003062 0 
5.8601494407081 4.28308699370463 0 
5.68029048660413 4.8515042901574 0 
5.42658477444226 4.46352549156388 0 
5.21352549156062 4.88167787844119 0 
2.54161892615967 0.0914010790745798 0 
3.02538662526579 0.0385098697955254 0 
2.79241707692325 0.493236201625905 0 
2.73720849501167 1.02392412765922 0 
3.35449154939492 0.701869496117558 0 
3.52358785870733 0.0830071504307006 0 
3.95600667538592 0.428359264522997 0 
3.96581576553116 1.07849166125633 0 
4.8612418188855 0.872144335055486 0 
4.37896702883305 0.770462725213753 0 
4.67776166091303 0.216652021249469 0 
4.84974482540418 2.33336137579763 0 
4.50455658594268 1.30306500974753 0 
4.70946207284 1.83672639510213 0 
4.0011549544918 1.68576403431549 0 
4.2923957319821 2.15351348359111 0 
4.00000000002297 2.5 0 
3.15084030735767 2.33359236992665 0 
3.70741081554266 2.15263746510597 0 
3.28454384551519 1.8027682381804 0 
3.1396989693899 1.30608486013025 0 
3.56316863834187 1.33032367971648 0 
2.73576264220976 1.56428129704299 0 
2.63716497990451 2.1318094990573 0 
1.68010281254534 0.295644196930274 0 
2.25758779729503 0.578769331287405 0 
2.23195596402032 1.23056517694642 0 
1.74767559383213 0.911782427439393 0 
1.02593494341464 0.0379722165415969 0 
0.7182230839746 0.559797122384452 0 
0.368855472107905 0.196955150663808 0 
0.181658650619566 0.938907105012123 0 
0.82089697188815 1.07746207701913 0 
1.21194818199661 0.659047367849316 0 
0.0235578413386324 1.52185725616343 0 
0.48463893002651 1.59852867027425 0 
0.958181796200757 1.58958812932022 0 
0.87936636350358 2.0798565212706 0 
0.0902395839210254 1.89188352414188 0 
0.380837999307292 2.27429036290532 0 
1.25876421177527 2.44719376832298 0 
1.70242065796338 2.37925089557279 0 
1.41197056860032 1.92965736860919 0 
1.84663459703216 1.56194563332642 0 
1.31016261104323 1.26407481390104 0 
2.31621697925464 1.72861604927935 0 
2.03881800707619 2.08020555037707 0 
0.00574241830688382 2.67857185922421 0 
0.463474145385838 2.88527061839006 0 
1.16662369736554 2.84609853720424 0 
0.830260620044934 2.59396133824833 0 
0.883352164159075 3.09700090539923 0 
0.948850710390919 3.56188906378265 0 
0.13535959330825 3.19937860070956 0 
0.545268522206639 3.37698636564119 0 
0.225264092931348 3.65201514848622 0 
2.33531102637838 3.14902215160801 0 
2.12645157502292 3.70196206792988 0 
2.13293945100071 2.64464871795004 0 
1.58782488937217 2.80298651744413 0 
1.35071353616275 3.27245044643538 0 
1.86244246186473 3.22719018013707 0 
1.68386997500188 3.62263979845626 0 
2.5 3.99999999998469 0 
2.12701718481485 4.30010962568896 0 
2.33667810945702 4.85060788853377 0 
1.87139585092281 4.77680457162122 0 
1.67429470662676 4.40579074834604 0 
1.37929555508491 4.76530923962005 0 
1.71620157209968 4.02079538281008 0 
1.33166587294238 3.82010139289062 0 
0.591714262744201 3.75031380909345 0 
0.376552552332077 4.07949199325412 0 
1.23367072318522 4.30848415765889 0 
0.892229582230001 3.99601703439071 0 
0.708049171293241 4.34310506567724 0 
0.809458046266368 4.78373632216778 0 
0.0838618777150567 4.48354255135435 0 
2.78647450843038 4.8816778784288 0 
2.57341522555301 4.46352549154932 0 
3.04710200977433 4.4733705876242 0 
3.22440402850821 4.77466028546965 0 
3.54394610653793 4.44951207341855 0 
3.5130470426596 4.95049295885723 0 
3.72747073075726 3.97153128335698 0 
3.2418396555108 4.0005407633398 0 
2.904359080732 3.83702493104712 0 
2.9047152721098 4.16296637022401 0 
2.57341522556247 3.53647450842156 0 
3.03884880999089 3.52830166538569 0 
3.69100605460285 3.29536043368165 0 
3.45023410736465 3.5968794363706 0 
3.25202314334218 3.2320521602382 0 
3.50409650466733 3.01032013775645 0 
3.53647450845796 2.57341522555065 0 
2.78647450844838 3.11832212154643 0 
3.11832212157739 2.78647450842588 0 
2.67756188246467 2.6776034962146 0 
4.88167787845977 2.78647450845288 0 
4.46352549158572 2.57341522556484 0 
4.47855429021785 3.04597684469492 0 
3.83540573838241 2.94224918353946 0 
4.17113598614043 2.91514991652205 0 
3.82769007097178 3.61928049480725 0 
4.08937920652884 3.32580357962015 0 
4.7595922825338 3.249149578045 0 
4.41819733346293 3.42569780204672 0 
4.62267216877036 3.67386150706129 0 
4.97864998079616 3.50112517108805 0 
4.59448056316003 4.06198491569309 0 
4.16789646041398 3.80642845860288 0 
4.12742029272348 4.29908367997129 0 
3.87030341948633 4.7390516595276 0 
4.30194273785141 4.70535042203182 0 
4.49524636556957 4.98991713202647 0 
4.6218034766534 4.42379092236009 0 
4.98073637890607 4.51128458395716 0 
4.75070217112698 4.76973565156504 0 
4 10 0 
2.9792255284489 8.24997518577461 0 
3.53647450842884 5.42658477443989 0 
3.11832212155262 5.21352549155612 0 
2.67701703584029 5.32582332685196 0 
2.65325276687069 5.91476818699099 0 
3.15146945187575 5.6760494680245 0 
3.72178922351596 5.86285667741006 0 
4.15779644816394 5.063543702205 0 
3.82085798023077 5.09160593782328 0 
3.99999999999234 5.5 0 
4.88167787843499 5.21352549156512 0 
4.4635254915566 5.42658477444462 0 
4.85427507084101 5.6736051653985 0 
4.76767368904546 6.1812939660269 0 
4.30833092394092 5.85945396510259 0 
4.1951674437701 6.39374328665116 0 
3.93481563703866 7.13074997435546 0 
3.35933984690228 6.29001771768013 0 
2.7714001558688 6.83389559735857 0 
1.61968759874609 5.26218243008769 0 
2.16852740910914 5.34604397090528 0 
1.96863352319566 6.0398456538734 0 
1.14033326836842 5.18403397771337 0 
0.665892047259129 5.41917680173341 0 
0.251765680608438 5.02246987224378 0 
0.51054272302555 6.1566638582742 0 
1.24469577987157 5.71627214889735 0 
0.96897410773356 6.96902411063942 0 
1.34993680817131 6.35374552088533 0 
1.88967370696264 7.08942104992738 0 
2 10 0 
0.995264161819004 8.25171793499789 0 
0 10 0 
-1.00083205340351 8.25436126394008 0 
-2 10 0 
-2.8815316310327 8.31035664323521 0 
-4.04469795785811 7.81095204969704 0 
-4.99616604350543 8.37625903651741 0 
-4 10 0 
-4.95258001620891 5.10966931752066 0 
-4.98953285678755 5.2578587241458 0 
-4.74131746723136 5.26298492907801 0 
-4.83876502893995 5.19638946178328 0 
-4.7785081852202 5.05994878666061 0 
-4.7158300855673 5.55776217809215 0 
-4.90205642706598 5.61849963962098 0 
-4.84549150281447 5.47552825814821 0 
-4.94527313831703 5.36542460027053 0 
-4.84149419347062 5.32141352737299 0 
-4.706107373855 5.40450849718837 0 
-4.37657288043245 5.45311073832656 0 
-4.55767102820858 5.4423993268661 0 
-4.63726791043783 5.06050291228406 0 
-4.59549150281313 5.29389262614706 0 
-4.68362524461644 5.16650533192498 0 
-4.4435881152053 5.28368166642899 0 
-4.5 5.00000000001021 0 
-4.52447174185258 5.15450849718796 0 
-4.38398525653071 5.09758747048686 0 
-4.62572341418311 6.13900251233847 0 
-4.99729809251201 6.21057928593698 0 
-4.84776000197413 5.95752509836882 0 
-4.75939795902792 5.74049645167339 0 
-4.54375823109427 5.62792529054596 0 
-4.56169471461084 5.85817430494237 0 
-4.30241746389077 5.95256421704579 0 
-4.01019311830893 6.03354532336327 0 
-4.02339804491516 5.68610821471853 0 
-4.32242414127197 5.67357842892542 0 
-4.27595556667771 5.23659255283647 0 
-4.09310508841588 5.16810321736062 0 
-4.16616925150272 5.42282206248707 0 
-3.75054017257845 5.55551929135161 0 
-3.94042323452241 5.35125901018536 0 
-3.88799146347331 5.11578312816784 0 
-3.89956112287227 6.96023205796723 0 
-4.98890480907451 7.14759704421435 0 
-4.74851855808797 6.50498443983349 0 
-4.31506359623417 6.30577251531361 0 
-4.33460280607158 6.8165118095117 0 
-3.85330800942454 6.44295801324785 0 
-3.2544901908425 7.02623595226511 0 
-2.71370875116969 6.30321448036641 0 
-3.34854119832137 6.30525398150018 0 
-3.67470124664451 5.02351963418016 0 
-3.68809475474578 5.2961408813351 0 
-3.40410353366351 5.57849990039142 0 
-3.42156607412478 5.21486443873535 0 
-3.20436941857247 5.04332039316833 0 
-3.22032626177827 5.96201443530776 0 
-3.64776189940974 5.91551943616847 0 
-2.92591127672364 5.738066385228 0 
-2.88319990811895 5.05241497340077 0 
-3.10151992141331 5.35261293348252 0 
-2.66525202588797 5.37394285315045 0 
-2.4554119264411 5.01329959497958 0 
-2.21677612729882 5.35051469516578 0 
-1.77934499779986 5.24950124242472 0 
-1.30223343729676 5.26992005290976 0 
-1.47209040634945 5.70289128471611 0 
-2.14512338565928 6.21894550121837 0 
-1.96486695387902 5.74496414223728 0 
-2.41564566176214 5.77997088899898 0 
-1.62472685022622 6.27818260588872 0 
-2.06387296556377 7.06196196976817 0 
-0.00490896012605545 7.09774606738595 0 
-1.03652782398545 6.88053082188531 0 
-0.445042172091556 6.19597958268353 0 
-1.10520676091541 6.10324353681027 0 
-0.816276576791677 5.52399670661169 0 
-0.0457514407204624 5.52945078147136 0 
-0.370815900827665 4.99069032968972 0 
-0.595374079808719 4.52844947988174 0 
-1.09532902696204 4.49836317553072 0 
-0.955682510447697 4.9532394421669 0 
-1.21371733241145 4.08991974396801 0 
-0.778629375434782 4.13919132197849 0 
-0.363849217887021 4.20144179477129 0 
-0.474346606504802 3.83639006845853 0 
-0.0713252988782135 3.98388394391507 0 
-2.26316830682806 4.26979500383397 0 
-2.38335910710914 3.91390130045091 0 
-2.00090129696455 3.98118536984722 0 
-1.90748991930608 4.34938377673366 0 
-2.24459472970986 4.65141605802748 0 
-2.08342328334265 4.99418912524876 0 
-1.82353456112931 4.74342915999067 0 
-1.52030047804887 4.42791243189107 0 
-1.42424973110016 4.85643086806903 0 
-1.61739011712268 4.03479517001433 0 
-2.19734939192302 3.32356790749489 0 
-2.48528007988426 3.49140260147774 0 
-2.11095890660424 3.64036085598994 0 
-2.49641517066288 3.01475886371878 0 
-2.19982743851865 2.70225223077383 0 
-2.00807232617598 3.00368430077675 0 
-1.83030333352303 2.62854896912122 0 
-1.59524639330923 2.93845968222997 0 
-1.37053789989458 2.55405812682478 0 
-1.44065879686998 3.28189762057423 0 
-1.84289419700086 3.32357238056492 0 
-1.71863868109265 3.65404296284575 0 
-1.31043581400895 3.67378582577979 0 
-0.184079476460967 3.51974149323357 0 
-0.602533263284491 3.37419076693472 0 
-1.02497551006194 3.29084240253978 0 
-0.888382197906916 3.72361848934063 0 
-1.18055723525085 2.91350041585432 0 
-0.922629629538464 2.54682249388144 0 
-0.749240240109241 2.93966952006413 0 
-0.305196539487046 3.03338196711102 0 
-0.4689346806249 2.58567158882708 0 
-4.93815046692194 3.67386587890932 0 
-4.69723338727479 3.68021224618759 0 
-4.4453398956188 3.61702173142887 0 
-4.59544017442027 3.43534882965578 0 
-4.84001750125712 3.41350073092875 0 
-4.64902659011612 3.10153873384939 0 
-4.47276881677603 2.798637564908 0 
-4.74749734601548 2.68138674862527 0 
-3.87918392198423 2.79741415596482 0 
-4.21147760619387 2.75876575698342 0 
-4.35902762338841 3.02534044494834 0 
-4.11214806439099 3.09704425175406 0 
-3.78690649991429 3.12740974019521 0 
-4.02100241380921 3.38095615732591 0 
-4.34516751198006 3.34079762592035 0 
-4.19277668196391 3.60944322225443 0 
-3.90739067244127 3.65285465794001 0 
-4.9998461933506 4.24144890338634 0 
-4.76584194097875 4.27898037850316 0 
-4.85548728478204 4.07813494492106 0 
-4.82939498432076 3.86633008775211 0 
-4.53328560393001 3.81117813711915 0 
-4.66567354888922 3.94454912992808 0 
-4.4916078600515 3.98189907281158 0 
-4.57910387376486 4.16799388946081 0 
-4.93984025045286 4.64654830508295 0 
-4.99999999999234 4.5 0 
-4.84549150280476 4.52447174185495 0 
-4.90249970455942 4.38434882070496 0 
-4.71705386626958 4.44465056979169 0 
-4.70610737384674 4.59549150281763 0 
-4.83038792762675 4.67236143972462 0 
-4.87415502968853 4.77775541130743 0 
-4.96040332237347 4.87851218227286 0 
-4.9089418691833 4.99214133258485 0 
-4.80207546693758 4.89866342712983 0 
-4.74712004570309 4.74866134942388 0 
-4.64952395286446 4.94732958252965 0 
-4.59549150280713 4.7061073738612 0 
-4.67397492705034 4.83412074137508 0 
-4.44417768012344 4.71676628507707 0 
-4.52447174184943 4.84549150282175 0 
-4.38407666394694 4.90245300176507 0 
-4.55894989973934 4.55902429607349 0 
-4.55565810643167 4.38563581315634 0 
-4.22810198274818 4.99965141867801 0 
-4.26639059870204 4.76251551055329 0 
-4.10283930990416 4.72327372070835 0 
-4.12245605349655 4.85516926375121 0 
-4.06618437360984 4.4556353398044 0 
-4.23191172481735 4.44071586621813 0 
-4.37367610805204 4.54442527686207 0 
-4.17550257644703 4.59346171003821 0 
-3.88016791122093 4.46677177162163 0 
-3.96048704687496 4.62902886447158 0 
-4.0403376444813 4.98113916356689 0 
-3.97974817080925 4.80950696124024 0 
-3.79834720428933 4.79326828654183 0 
-3.87766144728588 4.9389061596629 0 
-3.78215083026044 4.14564208583351 0 
-4.00492205614228 4.08259238420888 0 
-3.94251504734629 4.29569865742044 0 
-4.16972048320881 4.24698906399779 0 
-4.3555086264569 4.10742840343534 0 
-4.37026113294505 4.32834057564488 0 
-4.32791142969407 3.84319359963983 0 
-4.18681004565031 4.01915883647914 0 
-4.07971575183751 3.83642345673019 0 
-3.84356332529336 3.91349747129871 0 
-3.58283564706793 4.80663393706058 0 
-3.4442604419124 4.9800400280706 0 
-3.74010983432358 4.6038757093325 0 
-3.51094132318159 4.5889137185032 0 
-3.26015856696126 4.56521109710063 0 
-3.34950459444855 4.78932187699708 0 
-3.40696555956675 3.88574642777075 0 
-3.12599275398985 3.94343834602376 0 
-3.63742267465934 3.98361294769669 0 
-3.52898889887271 4.16314023014009 0 
-3.68195563299178 4.37213680059633 0 
-3.40816004963802 4.37394537208186 0 
-3.26364003267229 4.16191537328915 0 
-3.15416833007583 4.35541477276849 0 
-2.82544070127825 3.79493587651338 0 
-2.60014364766237 4.18007396669823 0 
-2.9347367995256 4.18268118297876 0 
-3.06813002220716 4.78947100718503 0 
-2.97649099845301 4.50907226264179 0 
-2.74904383335883 4.41327026398582 0 
-2.51347611653302 4.44559042762472 0 
-2.70491726261668 4.70989548038588 0 
-2.82151670300496 3.34420682779197 0 
-3.01177054952031 3.52152272429881 0 
-3.18138683296726 3.66820701192939 0 
-3.21229063525414 3.29963677946413 0 
-3.5173156711968 3.2483998094421 0 
-3.72605269652749 3.43245917644232 0 
-3.4500987546294 3.5447625002199 0 
-3.65480924486416 3.74385496661771 0 
-3.61465700669161 2.52282448627751 0 
-3.44934075193015 2.92951352154236 0 
-3.15156829179582 2.62002748360238 0 
-2.97508553683197 2.9821591866831 0 
-2.78810435431177 2.68096165305703 0 
-4.42787638769298 1.5706172427501 0 
-4.80152237746094 1.77098136056173 0 
-4.39829162522925 2.46352972867966 0 
-4.73895364553787 2.22344429791608 0 
-4.03442292412993 2.43690455962905 0 
-4.28893595934946 2.02907973129291 0 
-3.77742388684996 2.10778500678735 0 
-3.96993433746939 1.66707816342351 0 
-4.80359239551292 1.15912291207658 0 
-4.4600471560785 0.754747412858664 0 
-4.87790496672542 0.385997603554524 0 
-4.26498654467331 0.295558887548688 0 
-3.96488960569928 0.762409904803676 0 
-4.22426059305726 1.20921661867637 0 
-3.68526946005264 0.28087719052574 0 
-3.26884824398204 0.796172659589564 0 
-2.74770692298953 1.154287789864 0 
-2.99654200070879 0.192960228541253 0 
-2.59186953345999 0.604835639958127 0 
-2.80838919252403 1.68178365722978 0 
-3.20003211151278 1.38389389731102 0 
-3.15123531077179 1.84683546788624 0 
-3.51547566178346 1.74098952029675 0 
-3.68705810247358 1.25419587436123 0 
-3.33163955228659 2.22057517951774 0 
-2.89114670260485 2.24740249511104 0 
-0.191115877650133 2.23628046424482 0 
-1.12453872641174 2.14456831320605 0 
-0.650848025589678 2.16617816009323 0 
-0.836404293464528 1.66759603338105 0 
-0.329817662501163 1.81232079000182 0 
-0.37694835508176 1.32073775962121 0 
-2.36694674827102 1.53133124560209 0 
-2.46596511658456 2.02185051596488 0 
-2.49666061324608 2.49555332718313 0 
-2.13167024735998 2.33437133408097 0 
-2.00550723718813 1.8889327511701 0 
-1.65442812371342 2.22615532052207 0 
-1.44121899998474 1.76041925264362 0 
-1.86291047536333 1.40802740713 0 
-2.22512856987408 1.0241541295849 0 
-2.41772241864642 0.0585039419198442 0 
-2.03461793369116 0.517985063626085 0 
-1.47520068341275 0.557526384454409 0 
-1.76417013155622 0.951771158629502 0 
-1.30702484918067 1.17722485265616 0 
-0.492766995714157 0.763170150043726 0 
-0.986885377145087 0.661049096638505 0 
-0.826896170757982 1.13548509108863 0 
-1.0877884031288 0.0631514976742537 0 
-0.131228238929599 0.387468887109193 0 
-0.574217123874528 0.206649307515115 0 
-10 0 0 
-7.94323395430927 0.0286901675765522 0 
-8.32188085271452 1.13921470685318 0 
-10 2 0 
-5.37838316854027 1.60931291529509 0 
-5.13622577662147 2.05633085667954 0 
-5.65516076845322 2.19073322628021 0 
-6.17285629469152 1.5640215210349 0 
-5.46786730599096 0.912126582027905 0 
-5.47592699871586 0.153658179070548 0 
-6.12715905945197 0.511908605073615 0 
-7.06559301799326 0.913248394376971 0 
-7.16100619876947 2.04959802720327 0 
-5.09551104149015 3.46212647155839 0 
-5.21157146667492 3.70372785320063 0 
-5.44642067237209 3.43449095047319 0 
-5.07894121248379 3.09033328998931 0 
-5.47667702131831 3.05501646775286 0 
-5.2156185407972 2.57392327670541 0 
-5.70768104665445 2.77423222930976 0 
-5.86781899030915 3.16808827880495 0 
-5.92723784351546 3.60076244645796 0 
-5.23605904779755 4.27376875470944 0 
-5.14274743218798 4.09269399141236 0 
-5.02994828952832 3.89866270129533 0 
-5.58555196570272 3.77892120693736 0 
-5.33413655962413 3.94026853987572 0 
-5.42209107893219 4.16465330163415 0 
-5.05461610443639 4.63516435698128 0 
-5.15450849718068 4.52447174185022 0 
-5.09766519545828 4.38386949866828 0 
-5.28376957510521 4.44330475880611 0 
-5.29389262614087 4.59549150280863 0 
-5.15698206337801 4.67955732582135 0 
-5.01273801354797 4.74525153198449 0 
-5.11878737931689 4.817581554653 0 
-5.07771841964773 4.99193479129821 0 
-5.21499901997572 4.8928156827897 0 
-5.23811663681939 4.99775303905551 0 
-5.25278523086522 4.7498457016474 0 
-5.35163478366328 4.94202392091557 0 
-5.40450849718387 4.70610737384881 0 
-5.32674883684421 4.83358231734033 0 
-5.55776398142584 4.71582846645424 0 
-5.5 4.9999999999949 0 
-5.47552825814584 4.84549150280719 0 
-5.61849965859408 4.90205641295334 0 
-5.4424259670342 4.55763103859109 0 
-5.45367862570483 4.37567535232279 0 
-5.74050608811832 4.75939274801365 0 
-5.62803161363531 4.5437089827242 0 
-5.85827276710217 4.56168713394604 0 
-6.13914218937864 4.62566506013679 0 
-5.95754270612287 4.84775565080454 0 
-6.21068472899985 4.99721924018955 0 
-5.94969758766022 4.30276445554176 0 
-5.66502094128885 4.06515456570848 0 
-5.67340116752637 4.32428781383914 0 
-5.98362435083333 3.97869473313926 0 
-6.50529504153504 4.7485047013135 0 
-6.4446888818863 3.84981578216539 0 
-6.30444392700409 4.31314886360892 0 
-6.81796255898876 4.33516959764384 0 
-6.96166027235524 3.90088300791229 0 
-7.14868460630143 4.98847954528406 0 
-7.02688213636987 3.25211427169754 0 
-6.29191653859499 3.33378473957452 0 
-6.27713323810842 2.61889439442466 0 
-8.31477807666582 2.88596746719073 0 
-7.81187615638708 4.04734229072518 0 
-8.37640461450812 4.99643881559489 0 
-10 4 0 
-10 6 0 
-8.30987389433864 7.11913814951602 0 
-7.74422486379132 5.95179120142858 0 
-6.64104020160693 5.75913874274333 0 
-6.51448621158684 5.19506634568021 0 
-6.81669836281712 6.80461997125789 0 
-5.19620637455646 6.51327786846832 0 
-5.77136726246065 6.6287756048567 0 
-5.96025510840842 5.15295700882822 0 
-6.18318927902607 5.38344719400921 0 
-5.6292154045558 5.45710028114687 0 
-5.86691622659144 5.44157715284194 0 
-5.74084482774838 5.24074141814202 0 
-5.77986012549554 5.00002427710774 0 
-5.74562709541108 6.01760375248728 0 
-6.22838135785035 6.17436636278924 0 
-6.03191067938069 5.73132097634881 0 
-5.68852891926989 5.68636012583527 0 
-5.38546460210614 6.18116934651112 0 
-5.15303681890114 5.96017489064456 0 
-5.24076932542167 5.74081692047635 0 
-5.00002437058892 5.77985992727991 0 
-5.45718400296147 5.62913168274381 0 
-5.44274128461935 5.86575209482023 0 
-5.6185010743015 5.0979443039504 0 
-5.475528258149 5.15450849718311 0 
-5.55778361879095 5.28418555020449 0 
-5.40450849718987 5.29389262614293 0 
-5.32630699927099 5.16608804415404 0 
-5.35138027854398 5.05758048758924 0 
-5.44258084447789 5.4425808444711 0 
-5.28418555021303 5.5577836187866 0 
-5.09794430395987 5.6185010743 0 
-5.00000000000255 5.5 0 
-5.15450849719039 5.47552825814663 0 
-5.15333694138368 5.31938072570933 0 
-5.05378926377768 5.36536583933923 0 
-5.29389262614913 5.40450849718537 0 
-5.21007009587271 5.10187356613314 0 
-5.24963936488224 5.2487426444052 0 
-5.09930846350995 5.17200735190048 0 
-6 10 0 
-5.95276023411835 7.74322090066262 0 
-7.11964279403196 8.30936887205985 0 
-8 10 0 
-8.64778215767296 8.64776780536353 0 
-10 8 0 
-10 10 0 

Triangles
1668
1 3 2 0 
1 4 3 0 
2 3 17 0 
2 17 18 0 
3 4 5 0 
3 5 17 0 
4 7 5 0 
5 6 13 0 
5 7 6 0 
5 13 17 0 
6 124 117 0 
6 7 123 0 
6 123 124 0 
6 117 12 0 
6 12 13 0 
8 11 9 1 
8 28 11 1 
8 122 80 1 
8 80 28 1 
8 9 122 1 
9 118 122 1 
9 11 10 0 
9 10 12 0 
9 12 118 0 
10 11 14 0 
10 14 15 0 
10 13 12 0 
10 15 13 0 
11 30 14 0 
11 28 30 1 
12 117 118 0 
13 15 17 0 
14 30 32 0 
14 16 15 0 
14 32 16 0 
15 16 17 0 
16 20 19 0 
16 18 17 0 
16 32 20 0 
16 19 18 0 
19 21 45 0 
19 20 21 0 
20 33 21 0 
20 32 33 0 
21 33 35 0 
21 44 46 0 
21 35 44 0 
21 46 45 0 
22 79 75 1 
22 23 26 1 
22 26 29 1 
22 75 23 1 
22 27 79 1 
22 29 27 1 
23 24 25 1 
23 34 26 1 
23 25 34 1 
23 75 24 1 
24 36 25 1 
24 61 36 1 
24 75 61 1 
25 37 35 0 
25 35 34 0 
25 36 37 0 
26 34 31 1 
26 31 29 1 
27 29 28 1 
27 80 81 1 
27 28 80 1 
27 81 79 1 
28 29 30 1 
29 31 30 1 
30 31 32 0 
31 34 33 0 
31 33 32 0 
33 34 35 0 
35 37 44 0 
36 38 37 0 
36 61 60 1 
36 60 38 0 
37 42 44 0 
37 38 42 0 
38 40 42 0 
38 60 64 0 
38 39 40 0 
38 64 39 0 
39 65 694 0 
39 64 65 0 
39 694 745 0 
39 745 40 0 
40 41 42 0 
40 745 746 0 
40 746 41 0 
41 746 747 0 
41 43 42 0 
41 747 737 0 
41 737 43 0 
42 43 44 0 
43 46 44 0 
43 737 46 0 
45 46 736 0 
46 737 736 0 
47 48 51 0 
47 735 48 0 
47 339 734 0 
47 51 173 0 
47 734 735 0 
47 173 339 0 
48 49 50 0 
48 733 49 0 
48 735 733 0 
48 50 51 0 
49 55 50 0 
49 54 55 0 
49 53 54 0 
49 733 53 0 
50 55 58 0 
50 58 57 0 
50 57 51 0 
51 174 173 0 
51 57 174 0 
52 54 53 0 
52 53 725 0 
52 69 54 0 
52 725 70 0 
52 70 69 0 
53 733 727 0 
53 726 725 0 
53 727 726 0 
54 56 55 0 
54 69 56 0 
55 56 58 0 
56 94 89 0 
56 69 74 0 
56 89 58 0 
56 74 94 0 
57 59 178 0 
57 58 59 0 
57 178 174 0 
58 89 59 0 
59 88 178 0 
59 89 88 0 
60 61 62 1 
60 63 64 0 
60 62 63 1 
61 75 76 1 
61 76 62 1 
62 76 77 1 
62 77 72 1 
62 72 63 1 
63 68 64 0 
63 71 68 0 
63 72 71 1 
64 68 66 0 
64 66 65 0 
65 66 695 0 
65 695 694 0 
66 67 698 0 
66 68 67 0 
66 698 695 0 
67 68 70 0 
67 70 701 0 
67 701 698 0 
68 69 70 0 
68 71 69 0 
69 71 74 0 
70 725 701 0 
71 72 73 1 
71 73 74 1 
72 77 73 1 
73 77 86 1 
73 87 74 1 
73 86 87 1 
74 87 94 1 
75 79 78 1 
75 78 76 1 
76 78 77 1 
77 78 86 1 
78 81 83 1 
78 83 86 1 
78 79 81 1 
80 120 81 1 
80 122 120 1 
81 82 83 1 
81 120 82 1 
82 84 83 1 
82 113 110 1 
82 110 97 1 
82 120 113 1 
82 97 84 1 
83 85 86 1 
83 84 85 1 
84 96 93 1 
84 93 85 1 
84 97 96 1 
85 92 87 1 
85 93 92 1 
85 87 86 1 
87 92 94 1 
88 90 91 0 
88 91 186 0 
88 89 90 0 
88 186 178 0 
89 94 95 0 
89 95 90 0 
90 99 101 0 
90 95 99 0 
90 100 91 0 
90 101 100 0 
91 100 189 0 
91 189 186 0 
92 95 94 1 
92 93 95 1 
93 99 95 1 
93 96 99 1 
96 98 99 1 
96 97 98 1 
97 109 98 1 
97 110 109 1 
98 104 101 0 
98 109 104 0 
98 101 99 0 
100 101 102 0 
100 102 201 0 
100 201 189 0 
101 104 103 0 
101 103 102 0 
102 103 203 0 
102 203 201 0 
103 105 135 0 
103 134 203 0 
103 135 134 0 
103 104 105 0 
104 109 108 0 
104 108 105 0 
105 107 106 0 
105 108 107 0 
105 106 135 0 
106 129 136 0 
106 136 135 0 
106 127 129 0 
106 107 127 0 
107 108 115 0 
107 125 127 0 
107 115 125 0 
108 109 111 0 
108 111 115 0 
109 110 111 1 
110 113 111 1 
111 113 116 1 
111 116 115 0 
112 120 121 1 
112 121 119 1 
112 116 113 1 
112 113 120 1 
112 119 116 1 
114 119 117 0 
114 115 116 0 
114 125 115 0 
114 116 119 0 
114 117 124 0 
114 124 125 0 
117 119 118 0 
118 119 121 1 
118 121 122 1 
120 122 121 1 
123 126 125 0 
123 125 124 0 
125 126 127 0 
126 128 127 0 
127 128 129 0 
128 130 129 0 
129 137 136 0 
129 146 137 0 
129 130 146 0 
130 148 146 0 
131 133 132 0 
131 198 199 0 
131 199 202 0 
131 139 198 0 
131 132 139 0 
131 202 133 0 
132 137 145 0 
132 145 139 0 
132 133 136 0 
132 136 137 0 
133 203 134 0 
133 202 203 0 
133 134 136 0 
134 135 136 0 
137 146 145 0 
138 207 205 0 
138 205 139 0 
138 139 145 0 
138 142 140 0 
138 145 142 0 
138 140 207 0 
139 205 198 0 
140 141 224 0 
140 223 207 0 
140 224 223 0 
140 142 141 0 
141 244 224 0 
141 142 143 0 
141 143 248 0 
141 248 244 0 
142 144 143 0 
142 145 144 0 
143 249 248 0 
143 144 147 0 
143 147 249 0 
144 145 146 0 
144 146 147 0 
146 148 147 0 
147 246 249 0 
147 148 245 0 
147 245 246 0 
149 309 169 0 
149 310 309 0 
149 152 310 0 
149 170 150 0 
149 169 171 0 
149 171 170 0 
149 150 152 0 
150 165 164 2 
150 151 152 0 
150 164 151 2 
150 170 165 2 
151 164 163 2 
151 163 159 2 
151 159 154 0 
151 154 152 0 
152 154 153 0 
152 153 314 0 
152 314 310 0 
153 156 319 0 
153 319 315 0 
153 154 156 0 
153 315 314 0 
154 155 156 0 
154 159 155 0 
155 227 156 0 
155 159 158 0 
155 158 228 0 
155 228 227 0 
156 227 226 0 
156 226 319 0 
157 160 215 2 
157 215 240 2 
157 239 228 0 
157 228 158 0 
157 240 239 0 
157 158 160 2 
158 159 161 2 
158 161 160 2 
159 163 161 2 
160 162 216 2 
160 161 162 2 
160 216 215 2 
161 163 162 2 
162 213 216 2 
162 167 213 2 
162 163 167 2 
163 164 167 2 
164 165 167 2 
165 166 167 2 
165 182 166 2 
165 170 182 2 
166 182 184 2 
166 184 167 2 
167 214 213 2 
167 184 214 2 
168 333 337 0 
168 169 333 0 
168 337 172 0 
168 172 171 0 
168 171 169 0 
169 309 334 0 
169 334 333 0 
170 171 181 0 
170 181 182 2 
171 175 181 0 
171 172 175 0 
172 173 174 0 
172 337 173 0 
172 174 175 0 
173 337 339 0 
174 178 176 0 
174 176 175 0 
175 176 180 0 
175 180 181 0 
176 185 177 0 
176 177 180 0 
176 178 185 0 
177 193 179 2 
177 187 193 2 
177 185 187 0 
177 179 180 2 
178 186 185 0 
179 193 192 2 
179 184 183 2 
179 192 184 2 
179 183 180 2 
180 183 181 2 
181 183 182 2 
182 183 184 2 
184 192 214 2 
185 186 189 0 
185 189 187 0 
187 194 193 2 
187 189 188 0 
187 188 194 2 
188 200 195 2 
188 195 194 2 
188 189 201 0 
188 201 200 0 
190 212 214 2 
190 195 197 2 
190 196 211 2 
190 197 196 2 
190 211 212 2 
190 191 195 2 
190 214 191 2 
191 194 195 2 
191 192 194 2 
191 214 192 2 
192 193 194 2 
195 200 197 2 
196 198 204 2 
196 199 198 2 
196 204 211 2 
196 197 199 2 
197 200 199 2 
198 205 204 2 
199 200 202 0 
200 201 202 0 
201 203 202 0 
204 210 211 2 
204 205 206 2 
204 206 210 2 
205 207 206 2 
206 209 210 2 
206 207 209 2 
207 223 209 2 
208 212 210 2 
208 210 209 2 
208 222 217 2 
208 217 212 2 
208 209 222 2 
209 223 222 2 
210 212 211 2 
212 217 213 2 
212 213 214 2 
213 217 216 2 
215 216 219 2 
215 219 240 2 
216 217 219 2 
217 218 219 2 
217 222 218 2 
218 222 221 2 
218 221 220 2 
218 220 219 2 
219 220 240 2 
220 221 242 0 
220 242 241 0 
220 241 240 0 
221 224 242 0 
221 223 224 0 
221 222 223 2 
224 244 242 0 
225 230 231 0 
225 276 226 0 
225 231 276 0 
225 226 227 0 
225 229 230 0 
225 227 229 0 
226 276 278 0 
226 279 319 0 
226 278 279 0 
227 228 229 0 
228 239 229 0 
229 238 230 0 
229 239 238 0 
230 233 231 0 
230 238 233 0 
231 285 276 0 
231 286 285 0 
231 233 232 0 
231 232 286 0 
232 233 235 0 
233 234 235 0 
233 237 234 0 
233 238 237 0 
234 252 251 0 
234 236 247 0 
234 237 236 0 
234 247 252 0 
234 251 235 0 
236 243 244 0 
236 244 248 0 
236 248 247 0 
236 237 243 0 
237 238 243 0 
238 239 241 0 
238 241 243 0 
239 240 241 0 
241 242 243 0 
242 244 243 0 
245 253 246 0 
246 250 249 0 
246 254 252 0 
246 253 254 0 
246 252 250 0 
247 250 252 0 
247 248 250 0 
248 249 250 0 
251 252 255 0 
252 254 255 0 
253 256 254 0 
254 256 255 0 
257 259 258 0 
257 260 259 0 
258 259 263 0 
258 263 262 0 
259 273 263 0 
259 260 273 0 
260 275 273 0 
261 292 288 0 
261 288 289 0 
261 263 265 0 
261 265 264 0 
261 262 263 0 
261 289 262 0 
261 264 292 0 
263 272 265 0 
263 273 272 0 
264 290 292 0 
264 266 290 0 
264 265 266 0 
265 270 266 0 
265 272 270 0 
266 267 306 0 
266 306 290 0 
266 270 268 0 
266 268 267 0 
267 308 306 0 
267 438 308 0 
267 440 438 0 
267 268 440 0 
268 441 440 0 
268 270 269 0 
268 269 441 0 
269 274 444 0 
269 443 441 0 
269 270 271 0 
269 271 274 0 
269 444 443 0 
270 272 271 0 
271 272 273 0 
271 273 274 0 
273 275 274 0 
274 275 427 0 
274 428 444 0 
274 427 428 0 
276 277 278 0 
276 285 277 0 
277 282 278 0 
277 285 284 0 
277 284 282 0 
278 282 281 0 
278 281 279 0 
279 317 319 0 
279 281 317 0 
280 283 297 0 
280 320 322 0 
280 322 281 0 
280 281 283 0 
280 297 295 0 
280 295 320 0 
281 282 283 0 
281 321 317 0 
281 322 321 0 
282 284 283 0 
283 293 297 0 
283 284 293 0 
284 285 294 0 
284 294 293 0 
285 288 294 0 
285 287 288 0 
285 286 287 0 
287 289 288 0 
288 292 294 0 
290 291 292 0 
290 306 305 0 
290 305 291 0 
291 305 299 0 
291 298 292 0 
291 299 298 0 
292 293 294 0 
292 298 293 0 
293 298 297 0 
295 296 407 0 
295 297 300 0 
295 407 320 0 
295 300 296 0 
296 414 407 3 
296 417 414 3 
296 300 301 0 
296 301 417 3 
297 298 300 0 
298 299 300 0 
299 301 300 0 
299 304 301 0 
299 305 304 0 
301 304 302 3 
301 302 417 3 
302 418 416 3 
302 416 417 3 
302 303 418 3 
302 304 303 3 
303 307 425 3 
303 425 424 3 
303 424 418 3 
303 304 307 3 
304 305 307 0 
305 306 307 0 
306 308 307 0 
307 308 425 3 
308 438 426 3 
308 426 425 3 
309 310 311 0 
309 311 334 0 
310 314 313 0 
310 313 311 0 
311 312 334 0 
311 313 312 0 
312 331 335 0 
312 313 329 0 
312 329 331 0 
312 335 334 0 
313 314 315 0 
313 315 316 0 
313 330 329 0 
313 316 330 0 
315 319 318 0 
315 318 316 0 
316 318 321 0 
316 323 330 0 
316 321 323 0 
317 318 319 0 
317 321 318 0 
320 407 408 0 
320 408 324 0 
320 324 322 0 
321 322 323 0 
322 324 323 0 
323 327 328 0 
323 324 327 0 
323 328 330 0 
324 408 325 0 
324 325 327 0 
325 410 403 3 
325 411 410 3 
325 403 327 0 
325 408 411 3 
326 405 406 0 
326 332 328 0 
326 327 403 0 
326 328 327 0 
326 403 405 0 
326 406 332 0 
328 329 330 0 
328 332 331 0 
328 331 329 0 
331 332 354 0 
331 354 335 0 
332 367 355 0 
332 406 367 0 
332 355 354 0 
333 334 336 0 
333 342 337 0 
333 336 342 0 
334 335 336 0 
335 352 336 0 
335 354 352 0 
336 353 342 0 
336 352 353 0 
337 342 338 0 
337 338 339 0 
338 340 339 0 
338 342 341 0 
338 341 340 0 
339 340 734 0 
340 341 344 0 
340 730 734 0 
340 715 730 0 
340 343 715 0 
340 344 343 0 
341 353 345 0 
341 345 344 0 
341 342 353 0 
343 714 715 0 
343 347 714 0 
343 344 347 0 
344 346 348 0 
344 345 346 0 
344 348 347 0 
345 351 346 0 
345 353 351 0 
346 349 359 0 
346 359 348 0 
346 351 349 0 
347 348 710 0 
347 710 714 0 
348 357 356 0 
348 359 357 0 
348 356 710 0 
349 368 358 0 
349 358 359 0 
349 351 350 0 
349 350 368 0 
350 355 367 0 
350 351 355 0 
350 367 368 0 
351 352 355 0 
351 353 352 0 
352 354 355 0 
356 362 578 0 
356 578 579 0 
356 579 710 0 
356 357 362 0 
357 360 363 0 
357 363 362 0 
357 359 360 0 
358 368 369 0 
358 369 360 0 
358 360 359 0 
360 369 361 0 
360 361 363 0 
361 379 383 0 
361 369 379 0 
361 380 363 0 
361 383 380 0 
362 364 571 0 
362 363 364 0 
362 571 578 0 
363 380 364 0 
364 381 547 0 
364 380 381 0 
364 547 571 0 
365 404 397 0 
365 366 370 0 
365 397 366 0 
365 406 404 0 
365 370 367 0 
365 367 406 0 
366 397 372 0 
366 378 371 0 
366 372 373 0 
366 371 370 0 
366 373 378 0 
367 370 368 0 
368 370 369 0 
369 370 371 0 
369 371 379 0 
371 378 379 0 
372 395 396 3 
372 396 388 3 
372 397 395 3 
372 388 373 0 
373 376 378 0 
373 374 375 0 
373 388 374 0 
373 375 376 0 
374 387 431 0 
374 388 387 0 
374 431 448 0 
374 448 375 0 
375 448 447 0 
375 377 376 0 
375 447 377 0 
376 382 378 0 
376 377 382 0 
377 385 382 0 
377 447 450 0 
377 450 385 0 
378 382 379 0 
379 382 383 0 
380 383 381 0 
381 383 384 0 
381 384 386 0 
381 386 547 0 
382 385 384 0 
382 384 383 0 
384 385 386 0 
385 452 386 0 
385 450 451 0 
385 451 452 0 
386 545 547 0 
386 540 545 0 
386 539 540 0 
386 452 539 0 
387 389 390 3 
387 430 431 0 
387 388 389 3 
387 390 430 3 
388 396 389 3 
389 391 390 3 
389 396 394 3 
389 394 391 3 
390 391 392 3 
390 392 430 3 
391 394 393 3 
391 393 420 3 
391 420 421 3 
391 421 392 3 
392 429 430 3 
392 436 429 3 
392 421 436 3 
393 400 412 3 
393 394 400 3 
393 419 420 3 
393 412 419 3 
394 395 398 3 
394 398 400 3 
394 396 395 3 
395 397 398 3 
397 404 398 3 
398 401 400 3 
398 404 401 3 
399 400 401 3 
399 412 400 3 
399 410 413 3 
399 401 402 3 
399 402 410 3 
399 413 412 3 
401 405 402 3 
401 404 405 3 
402 405 403 3 
402 403 410 3 
404 406 405 0 
407 414 409 3 
407 409 408 3 
408 409 411 3 
409 414 415 3 
409 413 411 3 
409 415 413 3 
410 411 413 3 
412 413 419 3 
413 415 419 3 
414 417 416 3 
414 416 415 3 
415 416 419 3 
416 418 419 3 
418 424 420 3 
418 420 419 3 
420 422 421 3 
420 424 422 3 
421 422 435 3 
421 435 436 3 
422 424 426 3 
422 423 435 3 
422 426 423 3 
423 439 435 3 
423 426 438 3 
423 438 439 3 
424 425 426 3 
427 458 428 0 
428 446 444 0 
428 459 457 0 
428 457 446 0 
428 458 459 0 
429 437 434 0 
429 434 433 0 
429 433 430 0 
429 436 437 3 
430 433 431 0 
431 433 432 0 
431 432 448 0 
432 446 449 0 
432 449 448 0 
432 445 446 0 
432 433 445 0 
433 434 445 0 
434 442 443 0 
434 437 442 0 
434 443 445 0 
435 437 436 3 
435 439 437 3 
437 439 442 0 
438 440 439 0 
439 440 442 0 
440 441 442 0 
441 443 442 0 
443 444 445 0 
444 446 445 0 
446 457 449 0 
447 454 450 0 
447 449 454 0 
447 448 449 0 
449 456 454 0 
449 457 456 0 
450 454 451 0 
451 538 452 0 
451 454 453 0 
451 453 538 0 
452 538 539 0 
453 455 533 0 
453 533 535 0 
453 535 538 0 
453 456 455 0 
453 454 456 0 
455 459 533 0 
455 456 457 0 
455 457 459 0 
458 460 459 0 
459 460 461 0 
459 461 533 0 
460 462 461 0 
461 532 534 0 
461 463 532 0 
461 534 533 0 
461 462 463 0 
462 466 463 0 
463 509 532 0 
463 466 464 0 
463 464 509 0 
464 503 509 0 
464 465 504 0 
464 504 507 0 
464 466 465 0 
464 507 503 0 
465 466 849 0 
465 850 504 0 
465 849 850 0 
467 468 848 4 
467 470 468 4 
467 471 470 4 
467 772 614 4 
467 848 772 4 
467 614 471 4 
468 843 848 4 
468 476 475 4 
468 470 476 4 
468 844 843 4 
468 475 844 4 
469 470 482 4 
469 476 470 4 
469 481 477 4 
469 477 476 4 
469 482 481 4 
470 471 482 4 
471 617 480 4 
471 480 482 4 
471 614 615 4 
471 615 617 4 
472 491 490 0 
472 477 479 0 
472 490 473 0 
472 479 491 0 
472 473 474 0 
472 474 477 0 
473 840 841 0 
473 829 840 0 
473 490 829 0 
473 841 474 0 
474 841 475 4 
474 475 476 4 
474 476 477 4 
475 841 844 4 
477 481 479 0 
478 496 491 0 
478 491 479 0 
478 483 497 0 
478 479 483 0 
478 497 499 0 
478 499 496 0 
479 481 483 0 
480 484 485 4 
480 485 482 4 
480 617 484 4 
481 485 483 0 
481 482 485 4 
483 486 497 0 
483 485 486 0 
484 621 622 0 
484 622 486 0 
484 486 485 0 
484 617 621 4 
486 625 497 0 
486 622 625 0 
487 506 505 0 
487 489 492 0 
487 492 493 0 
487 505 488 0 
487 493 506 0 
487 488 489 0 
488 505 814 0 
488 826 827 0 
488 827 489 0 
488 814 826 0 
489 490 492 0 
489 827 829 0 
489 829 490 0 
490 491 492 0 
491 496 492 0 
492 496 493 0 
493 495 494 0 
493 496 495 0 
493 494 506 0 
494 495 518 0 
494 508 506 0 
494 518 508 0 
495 499 501 0 
495 496 499 0 
495 501 500 0 
495 500 518 0 
497 625 498 0 
497 498 499 0 
498 501 499 0 
498 635 502 0 
498 502 501 0 
498 625 635 0 
500 501 513 0 
500 513 514 0 
500 514 518 0 
501 502 513 0 
502 638 512 0 
502 512 513 0 
502 635 638 0 
503 508 509 0 
503 507 508 0 
504 815 814 0 
504 850 815 0 
504 505 507 0 
504 814 505 0 
505 506 507 0 
506 508 507 0 
508 518 511 0 
508 511 509 0 
509 511 510 0 
509 510 532 0 
510 528 532 0 
510 517 519 0 
510 511 517 0 
510 530 528 0 
510 519 530 0 
511 518 517 0 
512 649 650 0 
512 650 515 0 
512 515 513 0 
512 637 649 0 
512 638 637 0 
513 515 514 0 
514 521 519 0 
514 515 521 0 
514 519 517 0 
514 517 518 0 
515 650 516 0 
515 516 521 0 
516 520 521 0 
516 650 654 0 
516 654 666 0 
516 666 520 0 
519 521 522 0 
519 522 530 0 
520 666 670 0 
520 522 521 0 
520 670 523 0 
520 523 522 0 
522 523 524 0 
522 524 530 0 
523 553 524 0 
523 670 552 0 
523 552 553 0 
524 529 530 0 
524 525 529 0 
524 553 525 0 
525 553 554 0 
525 554 556 0 
525 526 527 0 
525 556 526 0 
525 527 529 0 
526 537 527 0 
526 542 537 0 
526 556 542 0 
527 536 531 0 
527 537 536 0 
527 531 529 0 
528 530 529 0 
528 531 532 0 
528 529 531 0 
531 536 534 0 
531 534 532 0 
533 534 535 0 
534 536 535 0 
535 536 537 0 
535 537 538 0 
537 539 538 0 
537 542 539 0 
539 542 540 0 
540 544 545 0 
540 542 541 0 
540 541 544 0 
541 543 544 0 
541 555 543 0 
541 542 556 0 
541 556 555 0 
543 570 574 0 
543 555 557 0 
543 557 570 0 
543 574 544 0 
544 574 546 0 
544 546 545 0 
545 546 547 0 
546 572 571 0 
546 574 572 0 
546 571 547 0 
548 549 550 0 
548 551 552 0 
548 550 551 0 
548 669 664 0 
548 664 549 0 
548 552 669 0 
549 560 550 0 
549 663 559 0 
549 664 663 0 
549 559 560 0 
550 569 557 0 
550 557 551 0 
550 560 569 0 
551 557 555 0 
551 555 554 0 
551 554 552 0 
552 554 553 0 
552 670 669 0 
554 555 556 0 
557 569 570 0 
558 568 560 0 
558 561 563 0 
558 560 559 0 
558 563 568 0 
558 559 561 0 
559 671 561 0 
559 663 671 0 
560 568 569 0 
561 562 563 0 
561 683 718 0 
561 682 683 0 
561 671 682 0 
561 718 562 0 
562 564 563 0 
562 719 564 0 
562 718 719 0 
563 564 565 0 
563 565 568 0 
564 566 565 0 
564 721 566 0 
564 719 721 0 
565 567 568 0 
565 575 567 0 
565 566 575 0 
566 711 576 0 
566 721 711 0 
566 576 575 0 
567 575 573 0 
567 570 569 0 
567 569 568 0 
567 573 570 0 
570 573 574 0 
571 572 578 0 
572 577 578 0 
572 573 577 0 
572 574 573 0 
573 575 577 0 
575 576 577 0 
576 711 712 0 
576 579 577 0 
576 712 579 0 
577 579 578 0 
579 712 710 0 
580 581 600 0 
580 760 750 0 
580 584 581 0 
580 749 584 0 
580 750 749 0 
580 600 760 0 
581 602 600 0 
581 601 602 0 
581 582 601 0 
581 583 582 0 
581 584 583 0 
582 594 595 0 
582 583 594 0 
582 595 645 0 
582 645 601 0 
583 584 585 0 
583 585 594 0 
584 752 585 0 
584 749 752 0 
585 590 594 0 
585 752 587 0 
585 586 590 0 
585 587 586 0 
586 686 589 0 
586 589 590 0 
586 587 686 0 
587 752 754 0 
587 754 687 0 
587 687 686 0 
588 592 591 0 
588 680 592 0 
588 688 679 0 
588 591 589 0 
588 589 688 0 
588 679 680 0 
589 591 590 0 
589 686 688 0 
590 591 594 0 
591 592 593 0 
591 593 594 0 
592 676 593 0 
592 675 676 0 
592 680 675 0 
593 596 595 0 
593 595 594 0 
593 676 596 0 
595 596 647 0 
595 647 645 0 
596 648 647 0 
596 676 678 0 
596 678 648 0 
597 608 766 0 
597 759 599 0 
597 598 608 0 
597 599 598 0 
597 766 758 0 
597 758 759 0 
598 624 609 0 
598 599 604 0 
598 604 624 0 
598 609 608 0 
599 760 600 0 
599 600 602 0 
599 759 760 0 
599 602 604 0 
601 603 602 0 
601 645 603 0 
602 603 604 0 
603 645 643 0 
603 643 604 0 
604 643 644 0 
604 644 624 0 
605 764 606 4 
605 612 770 4 
605 770 764 4 
605 611 612 4 
605 606 607 4 
605 607 611 4 
606 764 765 4 
606 608 607 0 
606 766 608 0 
606 765 766 0 
607 609 610 0 
607 608 609 0 
607 610 611 4 
609 623 610 0 
609 624 623 0 
610 618 616 4 
610 623 618 0 
610 616 611 4 
611 616 612 4 
612 613 770 4 
612 616 615 4 
612 615 613 4 
613 771 770 4 
613 615 614 4 
613 614 772 4 
613 772 771 4 
615 619 617 4 
615 616 619 4 
616 618 619 4 
617 619 621 4 
618 623 620 0 
618 620 621 0 
618 621 619 4 
620 622 621 0 
620 631 626 0 
620 623 631 0 
620 626 622 0 
622 626 625 0 
623 624 631 0 
624 644 631 0 
625 628 635 0 
625 626 628 0 
626 631 632 0 
626 632 627 0 
626 627 628 0 
627 634 636 0 
627 632 634 0 
627 636 628 0 
628 636 635 0 
629 642 641 0 
629 633 634 0 
629 634 632 0 
629 632 630 0 
629 630 642 0 
629 641 633 0 
630 632 631 0 
630 631 644 0 
630 644 642 0 
633 641 659 0 
633 651 634 0 
633 659 651 0 
634 651 637 0 
634 637 636 0 
635 636 638 0 
636 637 638 0 
637 651 649 0 
639 640 648 0 
639 658 659 0 
639 657 658 0 
639 648 657 0 
639 659 641 0 
639 641 640 0 
640 646 647 0 
640 647 648 0 
640 642 646 0 
640 641 642 0 
642 643 646 0 
642 644 643 0 
643 645 646 0 
645 647 646 0 
648 678 657 0 
649 651 652 0 
649 654 650 0 
649 652 654 0 
651 659 652 0 
652 660 653 0 
652 659 660 0 
652 653 654 0 
653 660 662 0 
653 667 666 0 
653 666 654 0 
653 662 667 0 
655 678 677 0 
655 673 656 0 
655 657 678 0 
655 661 658 0 
655 658 657 0 
655 656 661 0 
655 677 673 0 
656 663 665 0 
656 673 663 0 
656 665 661 0 
658 661 660 0 
658 660 659 0 
660 661 662 0 
661 665 662 0 
662 665 667 0 
663 673 672 0 
663 672 671 0 
663 664 665 0 
664 669 668 0 
664 668 665 0 
665 668 667 0 
666 667 670 0 
667 668 670 0 
668 669 670 0 
671 674 682 0 
671 672 674 0 
672 673 674 0 
673 677 674 0 
674 677 675 0 
674 675 680 0 
674 680 682 0 
675 677 676 0 
676 677 678 0 
679 708 681 0 
679 681 680 0 
679 690 708 0 
679 688 690 0 
680 681 682 0 
681 708 709 0 
681 709 683 0 
681 683 682 0 
683 709 718 0 
684 689 685 0 
684 697 691 0 
684 685 692 0 
684 692 697 0 
684 691 689 0 
685 689 687 0 
685 687 741 0 
685 740 692 0 
685 741 740 0 
686 687 689 0 
686 689 688 0 
687 754 741 0 
688 689 690 0 
689 691 690 0 
690 706 708 0 
690 691 706 0 
691 697 707 0 
691 707 706 0 
692 744 694 0 
692 740 744 0 
692 694 693 0 
692 693 697 0 
693 694 695 0 
693 696 697 0 
693 695 696 0 
694 744 745 0 
695 698 696 0 
696 699 707 0 
696 698 699 0 
696 707 697 0 
698 701 699 0 
699 704 707 0 
699 701 702 0 
699 702 700 0 
699 700 704 0 
700 716 703 0 
700 703 704 0 
700 724 716 0 
700 702 724 0 
701 725 702 0 
702 726 724 0 
702 725 726 0 
703 717 709 0 
703 716 717 0 
703 709 705 0 
703 705 704 0 
704 705 706 0 
704 706 707 0 
705 708 706 0 
705 709 708 0 
709 717 718 0 
710 712 714 0 
711 713 712 0 
711 722 713 0 
711 721 722 0 
712 713 714 0 
713 729 732 0 
713 722 729 0 
713 732 715 0 
713 715 714 0 
715 732 730 0 
716 720 717 0 
716 724 723 0 
716 723 720 0 
717 720 719 0 
717 719 718 0 
719 720 721 0 
720 722 721 0 
720 723 722 0 
722 723 729 0 
723 724 728 0 
723 728 729 0 
724 726 728 0 
726 727 728 0 
727 733 731 0 
727 729 728 0 
727 731 729 0 
729 731 732 0 
730 735 734 0 
730 732 731 0 
730 731 735 0 
731 733 735 0 
736 738 739 0 
736 737 738 0 
737 747 738 0 
738 804 739 0 
738 747 748 0 
738 748 804 0 
739 804 807 0 
740 741 742 0 
740 743 744 0 
740 742 743 0 
741 754 742 0 
742 803 743 0 
742 755 803 0 
742 754 755 0 
743 746 744 0 
743 803 748 0 
743 748 747 0 
743 747 746 0 
744 746 745 0 
748 801 804 0 
748 803 801 0 
749 750 751 0 
749 751 752 0 
750 762 761 0 
750 761 751 0 
750 760 762 0 
751 757 756 0 
751 756 753 0 
751 761 757 0 
751 753 752 0 
752 753 754 0 
753 755 754 0 
753 756 755 0 
755 756 803 0 
756 757 802 0 
756 802 803 0 
757 761 794 0 
757 794 796 0 
757 796 802 0 
758 767 784 0 
758 766 767 0 
758 763 759 0 
758 784 763 0 
759 763 762 0 
759 762 760 0 
761 762 792 0 
761 792 794 0 
762 763 792 0 
763 793 792 0 
763 784 793 0 
764 770 769 4 
764 769 765 4 
765 767 766 0 
765 769 768 4 
765 768 767 0 
767 783 784 0 
767 768 783 0 
768 775 777 4 
768 769 775 4 
768 777 783 0 
769 771 775 4 
769 770 771 4 
771 773 775 4 
771 772 773 4 
772 846 774 4 
772 774 773 4 
772 848 846 4 
773 774 776 4 
773 778 775 4 
773 776 778 4 
774 837 776 4 
774 846 837 4 
775 778 777 4 
776 837 780 4 
776 781 778 4 
776 780 781 4 
777 781 779 0 
777 778 781 4 
777 779 783 0 
779 781 782 0 
779 782 785 0 
779 786 783 0 
779 785 786 0 
780 782 781 0 
780 833 832 0 
780 837 833 4 
780 832 782 0 
782 832 821 0 
782 821 785 0 
783 786 784 0 
784 786 793 0 
785 789 787 0 
785 821 789 0 
785 787 786 0 
786 787 793 0 
787 788 791 0 
787 791 793 0 
787 789 788 0 
788 795 797 0 
788 797 791 0 
788 789 790 0 
788 790 795 0 
789 821 816 0 
789 816 790 0 
790 817 812 0 
790 816 817 0 
790 812 795 0 
791 797 794 0 
791 794 792 0 
791 792 793 0 
794 797 796 0 
795 812 800 0 
795 798 797 0 
795 800 798 0 
796 801 802 0 
796 797 798 0 
796 799 801 0 
796 798 799 0 
798 800 805 0 
798 805 799 0 
799 805 801 0 
800 812 811 0 
800 811 810 0 
800 810 806 0 
800 806 805 0 
801 803 802 0 
801 805 804 0 
804 805 807 0 
805 806 807 0 
806 808 807 0 
806 810 808 0 
808 810 809 0 
808 809 854 0 
809 853 854 0 
809 813 851 0 
809 810 813 0 
809 851 853 0 
810 811 813 0 
811 823 813 0 
811 817 824 0 
811 812 817 0 
811 824 823 0 
813 823 815 0 
813 850 851 0 
813 815 850 0 
814 815 826 0 
815 823 822 0 
815 822 826 0 
816 820 819 0 
816 819 817 0 
816 821 820 0 
817 819 824 0 
818 834 838 0 
818 825 819 0 
818 819 820 0 
818 838 830 0 
818 830 825 0 
818 820 834 0 
819 825 824 0 
820 832 834 0 
820 821 832 0 
822 823 824 0 
822 824 825 0 
822 825 831 0 
822 831 826 0 
825 830 831 0 
826 831 827 0 
827 828 829 0 
827 831 828 0 
828 831 830 0 
828 840 829 0 
828 839 840 0 
828 830 839 0 
830 838 839 0 
832 833 834 0 
833 837 836 4 
833 836 835 4 
833 835 834 0 
834 835 838 0 
835 836 847 4 
835 845 838 0 
835 847 845 4 
836 846 847 4 
836 837 846 4 
838 845 839 0 
839 845 842 0 
839 842 840 0 
840 842 841 0 
841 842 844 4 
842 843 844 4 
842 845 843 4 
843 847 848 4 
843 845 847 4 
846 848 847 4 
849 852 851 0 
849 851 850 0 
851 852 853 0 
852 855 853 0 
853 855 854 0 

Edges
120
1 2 4 
1 4 1 
4 7 1 
2 18 4 
9 11 5 
11 30 5 
18 19 4 
19 45 4 
25 34 5 
25 36 5 
30 31 5 
7 123 1 
9 118 5 
31 34 5 
36 60 5 
60 63 5 
63 71 5 
71 74 5 
74 94 5 
94 95 5 
95 99 5 
98 99 5 
98 109 5 
109 111 5 
111 116 5 
116 119 5 
118 119 5 
123 126 1 
126 128 1 
128 130 1 
130 148 1 
150 151 5 
151 159 5 
150 170 5 
157 158 5 
158 159 5 
148 245 1 
170 181 5 
157 240 5 
177 180 5 
177 187 5 
180 181 5 
45 736 4 
187 188 5 
188 200 5 
198 199 5 
199 200 5 
198 205 5 
205 207 5 
207 223 5 
220 221 5 
221 223 5 
220 240 5 
232 235 2 
235 251 2 
232 286 2 
245 253 1 
251 255 2 
253 256 1 
255 256 2 
257 258 2 
257 260 3 
258 262 2 
260 275 3 
262 289 2 
286 287 2 
287 289 2 
296 301 5 
301 304 5 
304 307 5 
275 427 3 
307 308 5 
296 407 5 
308 438 5 
325 403 5 
325 408 5 
372 388 5 
372 397 5 
387 388 5 
387 430 5 
397 404 5 
403 405 5 
404 405 5 
407 408 5 
429 430 5 
429 437 5 
427 458 3 
437 439 5 
438 439 5 
458 460 3 
460 462 3 
462 466 3 
474 477 5 
477 481 5 
481 485 5 
484 485 5 
484 621 5 
466 849 3 
474 841 5 
606 607 5 
607 610 5 
610 618 5 
618 621 5 
606 765 5 
736 739 4 
739 807 4 
765 768 5 
768 777 5 
777 781 5 
780 781 5 
780 833 5 
807 808 4 
808 854 4 
833 835 5 
835 845 5 
841 842 5 
842 845 5 
849 852 3 
852 855 3 
854 855 4 

End
